<svg width="15" height="12" viewBox="0 0 92 20" fill="none" xmlns="http://www.w3.org/2000/svg">
<path d="M0.92395 19.0001V0.43614H5.49995L10.622 14.9701H10.674L15.666 0.43614H20.19V19.0001H17.096V4.67414H17.044L11.896 19.0001H9.21795L4.06995 4.67414H4.01795V19.0001H0.92395Z" fill="black"/>
<path d="M25.6414 19.0001V0.43614H28.8914V19.0001H25.6414Z" fill="black"/>
<path d="M34.4377 19.0001V0.43614H37.6877V16.1921H47.1257V19.0001H34.4377Z" fill="black"/>
<path d="M50.9274 19.0001V0.43614H54.1774V19.0001H50.9274Z" fill="black"/>
<path d="M58.6058 12.8121H61.8558C61.8558 15.6721 63.9618 16.7901 66.5618 16.7901C69.4218 16.7901 70.4878 15.3861 70.4878 13.9821C70.4878 12.5521 69.7078 11.9801 68.9538 11.6941C67.6538 11.2001 65.9638 10.8621 63.4158 10.1601C60.2438 9.30214 59.3078 7.37814 59.3078 5.45414C59.3078 1.73614 62.7398 -0.00585938 66.0938 -0.00585938C69.9678 -0.00585938 73.2178 2.04814 73.2178 5.92214H69.9678C69.8118 3.53014 68.1998 2.64614 65.9638 2.64614C64.4558 2.64614 62.5578 3.19214 62.5578 5.06414C62.5578 6.36414 63.4418 7.09214 64.7678 7.45614C65.0538 7.53414 69.1618 8.60014 70.1238 8.88614C72.5678 9.61414 73.7378 11.6941 73.7378 13.6181C73.7378 17.7781 70.0458 19.4421 66.3538 19.4421C62.1158 19.4421 58.6838 17.4141 58.6058 12.8121Z" fill="black"/>
<path d="M76.3751 3.24414V0.43614H91.4031V3.24414H85.5011V19.0001H82.2511V3.24414H76.3751Z" fill="black"/>
</svg>
